<svg xmlns="http://www.w3.org/2000/svg" viewBox="0 0 48 48" fill="none">
  <rect width="48" height="48" rx="10" fill="#0a0a0a"/>
  <g transform="translate(24,24) scale(0.85)">
    <!-- Cannabis leaf - 5 lobes -->
    <path d="M0-18c-1.5 4-3 8-2 12 -3-2-7-3-10-2 2 3 5 6 8 8 -4 0-8 1-10 4 4 1 8 0 11-2 -1 4-1 8 1 12h4c2-4 2-8 1-12 3 2 7 3 11 2 -2-3-6-4-10-4 3-2 6-5 8-8 -3-1-7 0-10 2 1-4 0-8-2-12z" fill="#22c55e"/>
    <!-- Stem -->
    <rect x="-1.5" y="12" width="3" height="8" rx="1.5" fill="#16a34a"/>
  </g>
</svg>
